<?xml version="1.0" encoding="UTF-8"?>
<svg version="1.1" xmlns="http://www.w3.org/2000/svg" width="512" height="512">
<path d="M0 0 C38.94 0 77.88 0 118 0 C122.95 7.92 122.95 7.92 128 16 C130.46714842 19.82146602 132.94107368 23.63547141 135.4375 27.4375 C136.73331225 29.41781216 138.02888342 31.3982821 139.32421875 33.37890625 C139.9486084 34.33297363 140.57299805 35.28704102 141.21630859 36.27001953 C143.73895398 40.13098596 146.24672351 44.00145628 148.75 47.875 C149.18965088 48.5551416 149.62930176 49.2352832 150.08227539 49.93603516 C150.95440068 51.28555642 151.82639129 52.63516473 152.69824219 53.98486328 C154.92260335 57.42820106 157.1485407 60.87051859 159.375 64.3125 C159.82391602 65.00649902 160.27283203 65.70049805 160.73535156 66.41552734 C164.31607296 71.94856434 167.90689763 77.47499709 171.5 83 C176.89778982 91.30001525 182.28176625 99.60884956 187.65722656 107.92333984 C189.93723929 111.44948316 192.21870206 114.97468809 194.5 118.5 C195.41667341 119.9166623 196.33334008 121.33332897 197.25 122.75 C197.70375 123.45125 198.1575 124.1525 198.625 124.875 C202.75 131.25 202.75 131.25 204.12451172 133.37426758 C205.042779 134.79339311 205.96107335 136.21250114 206.87939453 137.6315918 C209.14679201 141.13549597 211.41374501 144.63968595 213.6796875 148.14453125 C218.61004244 155.7693825 223.54970195 163.38807908 228.5 171 C233.89778982 179.30001525 239.28176625 187.60884956 244.65722656 195.92333984 C246.93723929 199.44948316 249.21870206 202.97468809 251.5 206.5 C252.41667341 207.9166623 253.33334008 209.33332897 254.25 210.75 C254.70375 211.45125 255.1575 212.1525 255.625 212.875 C270.75 236.25 270.75 236.25 272.12524414 238.37548828 C273.04096201 239.79061471 273.95681465 241.20565393 274.87280273 242.62060547 C277.18010497 246.18513105 279.48496694 249.75119214 281.78515625 253.3203125 C282.25050781 254.04154297 282.71585937 254.76277344 283.1953125 255.50585938 C284.05430502 256.83729778 284.91249807 258.16925267 285.76953125 259.50195312 C290.43188682 266.72417798 295.22965598 273.84448397 300 281 C300.33 188.27 300.66 95.54 301 0 C340.27 0 379.54 0 420 0 C420 168.96 420 337.92 420 512 C380.4 512 340.8 512 300 512 C296.04 505.73 292.08 499.46 288 493 C283.66767579 486.47452451 283.66767579 486.47452451 279.3125 479.96484375 C273.19483563 470.82387152 267.21642333 461.59028817 261.20556641 452.37890625 C257.64084558 446.91678648 254.06999069 441.45867615 250.5 436 C249.08330701 433.83335055 247.66664037 431.66668386 246.25 429.5 C245.54875 428.4275 244.8475 427.355 244.125 426.25 C203.74999999 364.49999999 203.74999999 364.49999999 201.62548828 361.25073242 C200.20721155 359.08161288 198.78891724 356.91250483 197.37060547 354.7434082 C193.8534295 349.36436401 190.33654786 343.98512786 186.8203125 338.60546875 C179.38650055 327.23284599 171.94719842 315.86385919 164.5 304.5 C155.65702382 291.00628996 146.82708264 277.50411896 138 264 C132.39 255.42 126.78 246.84 121 238 C120.67 328.42 120.34 418.84 120 512 C80.4 512 40.8 512 0 512 C0 343.04 0 174.08 0 0 Z " fill="#FFBD3F" transform="translate(46,0)"/>
<path d="M0 0 C39.27 0 78.54 0 119 0 C119 168.96 119 337.92 119 512 C79.4 512 39.8 512 -1 512 C-4.96 505.73 -8.92 499.46 -13 493 C-17.33232421 486.47452451 -17.33232421 486.47452451 -21.6875 479.96484375 C-27.80516437 470.82387152 -33.78357667 461.59028817 -39.79443359 452.37890625 C-44.0638086 445.83706504 -48.34130276 439.3005266 -52.6171875 432.76293945 C-56.19945792 427.28521586 -59.77956341 421.80610003 -63.35546875 416.32421875 C-64.08850201 415.20114599 -64.8215747 414.07809896 -65.5546875 412.95507812 C-66.90056872 410.89311908 -68.24572029 408.83068343 -69.58984375 406.76757812 C-70.54117187 405.31061523 -70.54117187 405.31061523 -71.51171875 403.82421875 C-72.14381193 402.83270404 -72.77590511 401.84118933 -73.42715263 400.81962872 C-75.30269562 397.95272797 -77.334008 395.26025161 -79.44493294 392.56267262 C-89.61104678 379.16351738 -92.00337051 369.16750696 -91.58935547 352.59448242 C-91.58539471 350.33525847 -91.58764593 348.07601657 -91.59555054 345.81680298 C-91.59952648 339.75256267 -91.51790975 333.69229196 -91.41951513 327.62896514 C-91.33129451 321.26712168 -91.32371838 314.9051617 -91.30715942 308.5428009 C-91.26875259 297.88656923 -91.18163785 287.2318845 -91.05615234 276.57641602 C-90.92717579 265.61294609 -90.8283119 254.64986883 -90.76904297 243.68579102 C-90.76536484 243.00728622 -90.76168671 242.32878143 -90.75789712 241.62971588 C-90.73962346 238.22504932 -90.7219323 234.82038002 -90.70453048 231.4157089 C-90.55995423 203.27614261 -90.3128111 175.13816143 -90 147 C-89.34 147 -88.68 147 -88 147 C-86.57397461 148.88232422 -86.57397461 148.88232422 -84.90234375 151.5546875 C-83.96007935 153.04645508 -83.96007935 153.04645508 -82.9987793 154.56835938 C-81.97844604 156.20514648 -81.97844604 156.20514648 -80.9375 157.875 C-79.48749558 160.17645395 -78.03246172 162.47471956 -76.578125 164.7734375 C-76.20298264 165.36795715 -75.82784027 165.96247681 -75.44132996 166.57501221 C-71.42680145 172.92956343 -67.31203882 179.21638142 -63.1875 185.5 C-61.76153511 187.6756609 -60.33574902 189.851439 -58.91015625 192.02734375 C-58.24129395 193.04812012 -57.57243164 194.06889648 -56.88330078 195.12060547 C-52.99100728 201.071566 -49.13402662 207.04531739 -45.27832031 213.02001953 C-43.02175054 216.51520305 -40.76055391 220.00739253 -38.5 223.5 C-37.58331311 224.91665358 -36.6666464 226.33332022 -35.75 227.75 C-35.29625 228.45125 -34.8425 229.1525 -34.375 229.875 C-30.25 236.25 -30.25 236.25 -28.87475586 238.37548828 C-27.95903799 239.79061471 -27.04318535 241.20565393 -26.12719727 242.62060547 C-23.81989503 246.18513105 -21.51503306 249.75119214 -19.21484375 253.3203125 C-18.74949219 254.04154297 -18.28414063 254.76277344 -17.8046875 255.50585938 C-16.94569498 256.83729778 -16.08750193 258.16925267 -15.23046875 259.50195312 C-10.56811318 266.72417798 -5.77034402 273.84448397 -1 281 C-0.67 188.27 -0.34 95.54 0 0 Z " fill="#FF9F3F" transform="translate(347,0)"/>
</svg>
